<svg id="Flat" height="512" viewBox="0 0 512 512" width="512" xmlns="http://www.w3.org/2000/svg"><path d="m40 152h448v256h-448z" fill="#efdece"/><path d="m416 336a8 8 0 0 0 0-16h-96a8 8 0 0 0 0 16h16v72a8 8 0 0 0 16 0v-72h32v72a8 8 0 0 0 16 0v-72z" fill="#93573d"/><path d="m312 352h-24v-48a8 8 0 0 0 -16 0v104a8 8 0 0 0 16 0v-40h16v40a8 8 0 0 0 16 0v-48a8 8 0 0 0 -8-8z" fill="#93573d"/><path d="m456 296a8 8 0 0 0 -8 8v48h-24a8 8 0 0 0 -8 8v48a8 8 0 0 0 16 0v-40h16v40a8 8 0 0 0 16 0v-104a8 8 0 0 0 -8-8z" fill="#93573d"/><path d="m152 152h96v256h-96z" fill="#d8c8b9"/><path d="m256 424v-264h-112v264zm-96-16v-104h80v104m-80-120v-112h80v112z" fill="#e74444"/><path d="m24 408h464v32h-464z" fill="#155384"/><path d="m24 296h96v144h-96z" fill="#93573d"/><g fill="#efdece"><path d="m88 336h-32a8 8 0 0 1 0-16h32a8 8 0 0 1 0 16z"/><path d="m88 368h-32a8 8 0 0 1 0-16h32a8 8 0 0 1 0 16z"/><path d="m88 400h-32a8 8 0 0 1 0-16h32a8 8 0 0 1 0 16z"/></g><path d="m448 72h-368l-40 80v32h448v-32z" fill="#155384"/><path d="m104 152h64a0 0 0 0 1 0 0v32a32 32 0 0 1 -32 32 32 32 0 0 1 -32-32v-32a0 0 0 0 1 0 0z" fill="#fdd14b"/><path d="m168 152h64a0 0 0 0 1 0 0v32a32 32 0 0 1 -32 32 32 32 0 0 1 -32-32v-32a0 0 0 0 1 0 0z" fill="#e74444"/><path d="m40 152h64a0 0 0 0 1 0 0v32a32 32 0 0 1 -32 32 32 32 0 0 1 -32-32v-32a0 0 0 0 1 0 0z" fill="#e74444"/><path d="m232 152h64a0 0 0 0 1 0 0v32a32 32 0 0 1 -32 32 32 32 0 0 1 -32-32v-32a0 0 0 0 1 0 0z" fill="#fdd14b"/><path d="m296 152h64a0 0 0 0 1 0 0v32a32 32 0 0 1 -32 32 32 32 0 0 1 -32-32v-32a0 0 0 0 1 0 0z" fill="#e74444"/><path d="m360 152h64a0 0 0 0 1 0 0v32a32 32 0 0 1 -32 32 32 32 0 0 1 -32-32v-32a0 0 0 0 1 0 0z" fill="#fdd14b"/><path d="m424 184v-32h64v32a32 32 0 0 1 -32 32 32 32 0 0 1 -32-32" fill="#e74444"/></svg>